# xmcd CD database file
#
# Track frame offsets:
#	150
#	18825
#	38126
#	60142
#	81870
#	99231
#	119827
#	135816
#	161272
#	182610
#	207810
#	224212
#
# Disc length: 3200 seconds
#
# Revision: 1
# Processed by: cddbd v1.5.1PL2 Copyright (c) Steve Scherf et al.
# Submitted via: Feurio! 1.68 - http://www.feurio.com
#
DISCID=950c7e0c
DTITLE=Leslie West - Got Blooze
DYEAR=2005
DGENRE=Blues
TTITLE0=Baby Please Don't Go
TTITLE1=Third Degree
TTITLE2=Louisiana Blues
TTITLE3=I Can't Quit You
TTITLE4=Riot In Cell Block # 9
TTITLE5=House Of The Rising Sun
TTITLE6=( Look Over ) Yonder's Wall
TTITLE7=The Sky Is Crying
TTITLE8=Politician
TTITLE9=The Thrill Is Gone
TTITLE10=Walk In My Shadow
TTITLE11=Heartbreak Hotel
EXTD=
EXTT0=
EXTT1=
EXTT2=
EXTT3=
EXTT4=
EXTT5=
EXTT6=
EXTT7=
EXTT8=
EXTT9=
EXTT10=
EXTT11=
PLAYORDER=
